HIERARCHY
ROOT Hips
{
	OFFSET 0.00000 0.00000 0.00000
	CHANNELS 6 Xposition Yposition Zposition Zrotation Yrotation Xrotation 
	JOINT LHipJoint
	{
		OFFSET 0 0 0
		CHANNELS 3 Zrotation Yrotation Xrotation
		JOINT LeftHip
		{
			OFFSET 1.36306 -1.79463 0.83929
			CHANNELS 3 Zrotation Yrotation Xrotation
			JOINT LeftKnee
			{
				OFFSET 2.44811 -6.72613 0.00000
				CHANNELS 3 Zrotation Yrotation Xrotation
				JOINT LeftAnkle
				{
					OFFSET 2.56220 -7.03959 0.00000
					CHANNELS 3 Zrotation Yrotation Xrotation
					JOINT LeftToe
					{
						OFFSET 0.15764 -0.43311 2.32255
						CHANNELS 3 Zrotation Yrotation Xrotation
						End Site
						{
							OFFSET 0.00000 -0.00000 1.18966
						}
					}
				}
			}
		}
	}
	JOINT RHipJoint
	{
		OFFSET 0 0 0
		CHANNELS 3 Zrotation Yrotation Xrotation
		JOINT RightHip
		{
			OFFSET -1.30552 -1.79463 0.83929
			CHANNELS 3 Zrotation Yrotation Xrotation
			JOINT RightKnee
			{
				OFFSET -2.54253 -6.98555 0.00000
				CHANNELS 3 Zrotation Yrotation Xrotation
				JOINT RightAnkle
				{
					OFFSET -2.56826 -7.05623 0.00000
					CHANNELS 3 Zrotation Yrotation Xrotation
					JOINT RightToe
					{
						OFFSET -0.16473 -0.45259 2.36315
						CHANNELS 3 Zrotation Yrotation Xrotation
						End Site
						{
							OFFSET -0.00000 -0.00000 1.21082
						}
					}
				}
			}
		}
	}
	JOINT lowerback
	{
		OFFSET 0 0 0
		CHANNELS 3 Zrotation Yrotation Xrotation
		JOINT Chest
		{
			OFFSET 0.02827 2.03559 -0.19338
			CHANNELS 3 Zrotation Yrotation Xrotation
			JOINT Chest2
			{
				OFFSET 0.05672 2.04885 -0.04275
				CHANNELS 3 Zrotation Yrotation Xrotation
				JOINT lowerneck
				{
					OFFSET 0 0 0
					CHANNELS 3 Zrotation Yrotation Xrotation
					JOINT Neck
					{
						OFFSET -0.05417 1.74624 0.17202
						CHANNELS 3 Zrotation Yrotation Xrotation
						JOINT Head
						{
							OFFSET 0.10407 1.76136 -0.12397
							CHANNELS 3 Zrotation Yrotation Xrotation
							End Site
							{
								OFFSET 0.03720 1.77044 -0.06241
							}
						}
					}
				}
				JOINT LeftCollar
				{
					OFFSET 0 0 0
					CHANNELS 3 Zrotation Yrotation Xrotation
					JOINT LeftShoulder
					{
						OFFSET 3.36241 1.20089 -0.31121
CHANNELS 3 Zrotation Xrotation Yrotation
						JOINT LeftElbow
						{
OFFSET 0 -4.983000 -0.000000
CHANNELS 3 Zrotation Xrotation Yrotation
							JOINT LeftWrist
							{
OFFSET 0 -3.483560 -0.000000
CHANNELS 3 Zrotation Xrotation Yrotation
								JOINT lhand
								{
									OFFSET 0 0 0
CHANNELS 3 Zrotation Xrotation Yrotation
									JOINT LFingers
									{
OFFSET 0 -0.715260 -0.000000
CHANNELS 3 Zrotation Xrotation Yrotation
										End Site
										{
OFFSET 0 -0.576660 -0.000000
										}
									}
								}
								JOINT LThumb
								{
OFFSET 0 0.000000 0.000000
CHANNELS 3 Zrotation Xrotation Yrotation
									End Site
									{
OFFSET 0 -0.585470 0.585470
									}
								}
							}
						}
					}
				}
				JOINT RightCollar
				{
					OFFSET 0 0 0
					CHANNELS 3 Zrotation Yrotation Xrotation
					JOINT RightShoulder
					{
						OFFSET -3.13660 1.37405 -0.40465
CHANNELS 3 Zrotation Xrotation Yrotation
						JOINT RightElbow
						{
OFFSET 0 -5.241900 -0.000000
CHANNELS 3 Zrotation Xrotation Yrotation
							JOINT RightWrist
							{
OFFSET 0 -3.444170 -0.000000
CHANNELS 3 Zrotation Xrotation Yrotation
								JOINT rhand
								{
									OFFSET 0 0 0
CHANNELS 3 Zrotation Xrotation Yrotation
									JOINT RFingers
									{
OFFSET 0 -0.622530 -0.000000
CHANNELS 3 Zrotation Xrotation Yrotation
										End Site
										{
OFFSET 0 -0.501900 -0.000000
										}
									}
								}
								JOINT RThumb
								{
OFFSET 0 0.000000 0.000000
CHANNELS 3 Zrotation Xrotation Yrotation
									End Site
									{
OFFSET 0 -0.509560 0.509560
									}
								}
							}
						}
					}
				}
			}
		}
	}
}
MOTION
Frames: 12
Frame Time: .0083333
8.6074 16.1538 10.2251 -5.2991 -2.5304 -4.8252 0.0000 0.0000 0.0000 -3.8451 0.5159 -31.3604 12.0739 18.4217 66.2230 0.7325 -12.4673 -16.4406 0.1603 -2.5800 -7.1116 0.0000 0.0000 0.0000 20.0140 6.4142 -28.3674 -11.5385 -18.1887 64.5184 -1.2478 1.8211 -20.5958 -0.0160 -0.8167 2.2446 1.7551 0.2463 23.2239 3.5800 1.1535 2.6360 2.6060 0.5501 -10.1236 -5.0019 -2.8542 -7.6616 5.5433 -3.5280 0.8513 2.5256 -1.6572 1.8210 -0.0000 -0.0000 0.0000 6.8625 8.6448 -26.8816 59.0846 -56.061 33.5805 31.3184 -25.6863 11.8593 0.0 0.0 0.0 -7.1250 0.0 0.0 2.8519 16.1812 1.9466 -0.0000 -0.0000 0.0000 -9.2285 5.0731 21.9849 -43.8377 -50.1862 -21.3422 -23.8678 -12.0452 17.7171 0.0 0.0 0.0 7.1250 0.0 -0.0 4.0700 49.1934 -0.4215
8.6093 16.2498 10.2640 -5.4849 -2.4099 -4.5825 0.0000 0.0000 0.0000 -3.8787 0.2934 -30.7643 11.6863 18.2549 64.9910 0.7176 -12.0992 -16.1967 0.1436 -2.4420 -6.7290 0.0000 0.0000 0.0000 20.3496 6.4401 -27.6953 -11.0983 -17.9829 63.1005 -1.2083 1.5827 -20.3180 -0.0358 -1.2219 3.3596 1.9919 0.1708 23.1251 3.6214 1.1227 2.4787 2.5277 0.5275 -10.2429 -4.9712 -2.8512 -7.7439 5.5062 -3.5303 1.0944 2.5076 -1.6573 1.9141 0.0000 -0.0000 0.0000 6.8674 8.406 -27.5982 61.8051 -56.7721 35.8471 31.4215 -26.6748 12.3891 0.0 0.0 0.0 -7.1250 0.0 0.0 2.8663 15.5567 1.9951 0.0000 -0.0000 0.0000 -9.3879 4.3907 22.158 -45.4745 -50.9988 -22.6069 -25.1968 -11.9837 18.5244 0.0 0.0 0.0 7.1250 0.0 -0.0 2.9465 50.2765 -0.3835
8.6122 16.3448 10.3039 -5.5728 -2.2687 -4.4800 0.0000 0.0000 0.0000 -4.0413 0.1224 -29.9737 11.2756 18.0674 63.6735 0.7261 -11.5110 -16.1005 0.1839 -2.7618 -7.6164 0.0000 0.0000 0.0000 20.5763 6.3904 -26.8113 -10.6398 -17.7542 61.6061 -1.1755 1.4557 -20.0662 -0.0773 -1.7932 4.9344 2.1550 0.0937 23.0477 3.6280 1.0636 2.4186 2.4603 0.4933 -10.2641 -4.9041 -2.8006 -8.0192 5.4174 -3.4674 1.4854 2.4682 -1.6230 2.0855 -0.0000 -0.0000 0.0000 6.9447 8.0761 -28.081 64.1324 -57.3142 37.8 31.3374 -26.662 12.7113 0.0 0.0 0.0 -7.1250 0.0 0.0 2.7739 15.198 1.952 -0.0000 -0.0000 0.0000 -9.4782 3.4849 22.2472 -46.8680 -51.6515 -23.6949 -25.3734 -12.2668 19.077 0.0 0.0 0.0 7.1250 0.0 -0.0 2.8970 50.902 -0.4216
8.6235 16.4344 10.3532 -5.3030 -2.1082 -4.4544 0.0000 0.0000 0.0000 -4.6646 -0.1041 -28.9872 10.8558 17.8638 62.3126 0.7274 -10.9869 -15.9700 0.1776 -2.7145 -7.4849 0.0000 0.0000 0.0000 20.3972 6.1403 -25.8079 -10.1883 -17.5144 60.1160 -1.1467 1.1236 -19.9034 -0.0755 -1.7725 4.8773 2.0822 0.0868 22.8217 3.5420 1.0158 2.4476 2.4182 0.4722 -10.1071 -4.7719 -2.7862 -8.0187 5.1684 -3.4531 1.5626 2.3609 -1.6212 2.0990 -0.0000 0.0000 0.0000 7.049 7.6209 -28.5686 66.2435 -57.7562 39.5813 30.5165 -25.4297 12.5292 0.0 0.0 0.0 -7.1250 0.0 0.0 2.2325 15.5225 1.5548 -0.0000 0.0000 0.0000 -9.5582 2.6278 22.2121 -48.2828 -52.279 -24.8092 -25.2752 -12.7105 19.1393 0.0 0.0 0.0 7.1250 0.0 -0.0 3.0099 50.9519 -0.4417
8.6331 16.5247 10.4008 -5.0659 -2.0112 -4.4529 0.0000 0.0000 0.0000 -5.2365 -0.2740 -27.9514 10.4365 17.6481 60.9377 0.7275 -10.4496 -15.8364 0.1753 -2.6971 -7.4366 0.0000 0.0000 0.0000 20.2842 5.9508 -24.7749 -9.7454 -17.2642 58.6340 -1.1082 0.6770 -19.6899 -0.0527 -1.4808 4.0727 1.9844 0.1024 22.6555 3.4920 0.9985 2.4696 2.4221 0.4672 -9.9926 -4.7316 -2.8188 -7.9601 4.9636 -3.4966 1.6365 2.2832 -1.6485 2.1078 -0.0000 -0.0000 0.0000 7.1214 6.9869 -29.2597 67.9241 -58.076 41.0052 29.7734 -25.0078 12.8791 0.0 0.0 0.0 -7.1250 0.0 0.0 1.6893 15.2267 1.1869 -0.0000 -0.0000 0.0000 -9.7136 1.9591 22.1805 -49.8825 -52.948 -26.0803 -25.2615 -13.4557 18.223 0.0 0.0 0.0 7.1250 0.0 -0.0 2.8158 49.9626 -0.3447
8.6345 16.6150 10.4355 -5.0409 -1.9169 -4.3430 0.0000 0.0000 0.0000 -5.4912 -0.4582 -27.1361 10.0254 17.4241 59.5732 0.7255 -9.8138 -15.6722 0.2055 -2.9189 -8.0529 0.0000 0.0000 0.0000 20.4329 5.9409 -23.9300 -9.3202 -17.0094 57.1912 -1.0682 0.2281 -19.4691 -0.0521 -1.4729 4.0509 1.9429 0.0656 22.6499 3.5374 0.9493 2.3784 2.5131 0.4472 -10.0921 -4.9677 -2.8161 -8.0769 5.0437 -3.4771 1.9301 2.3551 -1.6370 2.2348 -0.0000 0.0000 0.0000 7.1864 6.4032 -29.9484 69.3526 -58.3262 42.2193 29.6486 -25.2416 13.4599 0.0 0.0 0.0 -7.1250 0.0 0.0 1.5464 14.5865 1.1076 -0.0000 0.0000 0.0000 -9.9067 1.3443 22.238 -51.4328 -53.5573 -27.3226 -24.8471 -13.5565 18.397 0.0 0.0 0.0 7.1250 0.0 -0.0 3.2640 50.0809 -0.4092
8.6337 16.6935 10.4655 -5.1421 -1.8861 -4.2249 0.0000 0.0000 0.0000 -5.5371 -0.5406 -26.4360 9.6374 17.2008 58.2693 0.7017 -9.3842 -15.3548 0.1968 -2.8569 -7.8806 0.0000 0.0000 0.0000 20.7378 6.0397 -23.1205 -8.9222 -16.7574 55.8208 -1.0299 -0.2831 -19.2904 -0.0517 -1.4668 4.0342 1.9778 0.0245 22.7386 3.6219 0.9226 2.2631 2.5989 0.4356 -10.2702 -5.2462 -2.7908 -8.1538 5.1431 -3.4219 2.1115 2.4434 -1.6084 2.3173 -0.0000 0.0000 0.0000 7.3719 5.8915 -30.507 70.7222 -58.5481 43.3863 29.73 -24.8584 13.7042 0.0 0.0 0.0 -7.1250 0.0 0.0 1.5768 14.2985 1.139 -0.0000 0.0000 0.0000 -10.0901 0.6502 22.3642 -52.6773 -54.0198 -28.3268 -24.8178 -13.5962 18.0424 0.0 0.0 0.0 7.1250 0.0 -0.0 3.2134 49.6948 -0.3723
8.6334 16.7706 10.4990 -5.0722 -1.9343 -4.1352 0.0000 0.0000 0.0000 -5.7747 -0.5252 -25.6916 9.2619 16.9734 56.9916 0.6669 -9.0333 -14.9430 0.1865 -2.7813 -7.6705 0.0000 0.0000 0.0000 20.8391 6.1910 -22.2857 -8.5438 -16.5050 54.4986 -0.9799 -0.8481 -19.0306 -0.0328 -1.1684 3.2124 1.9170 0.0812 22.7388 3.6113 0.9846 2.1754 2.6045 0.4675 -10.3720 -5.2727 -2.8115 -7.9251 5.0582 -3.4511 2.0391 2.4189 -1.6285 2.2507 -0.0000 0.0000 0.0000 7.6616 5.4775 -31.1575 72.2134 -58.7702 44.66 29.6619 -24.2969 14.0677 0.0 0.0 0.0 -7.1250 0.0 0.0 1.4934 13.8976 1.0914 -0.0000 0.0000 0.0000 -10.1465 0.0818 22.3373 -54.1061 -54.523 -29.4867 -25.4694 -13.3736 18.021 0.0 0.0 0.0 7.1250 0.0 -0.0 2.5673 49.7788 -0.3026
8.6357 16.8516 10.5291 -4.8498 -1.8221 -3.9054 0.0000 0.0000 0.0000 -6.2128 -0.6389 -25.1430 8.8984 16.7419 55.7381 0.6340 -8.6114 -14.5282 0.2175 -3.0024 -8.2854 0.0000 0.0000 0.0000 20.6936 6.3084 -21.6924 -8.1832 -16.2524 53.2199 -0.9243 -1.3487 -18.6983 -0.0234 -0.9876 2.7148 1.7477 0.0982 22.6646 3.5409 0.9607 2.0304 2.6327 0.4628 -10.4954 -5.1253 -2.8246 -7.8849 4.8734 -3.4815 2.2133 2.3288 -1.6478 2.2934 0.0000 0.0000 0.0000 7.7582 5.3607 -31.5627 74.3682 -59.0563 46.5053 29.3537 -23.6264 14.5622 0.0 0.0 0.0 -7.1250 0.0 0.0 1.2345 13.3864 0.9154 0.0000 0.0000 0.0000 -10.1189 -0.4154 22.3236 -55.8492 -55.0984 -30.9113 -26.0015 -13.2683 18.2039 0.0 0.0 0.0 7.1250 0.0 -0.0 2.0791 50.0657 -0.2597
8.6375 16.9304 10.5526 -4.9802 -1.6377 -3.5963 0.0000 0.0000 0.0000 -6.2248 -0.7921 -24.7577 8.5539 16.5119 54.5340 0.5996 -8.2657 -14.1059 0.2437 -3.1765 -8.7706 0.0000 0.0000 0.0000 20.9147 6.4719 -21.2104 -7.8377 -15.9986 51.9760 -0.8807 -1.6549 -18.3994 -0.0438 -1.3512 3.7156 1.8523 -0.0021 22.6926 3.6150 0.8735 1.8508 2.6869 0.4202 -10.7104 -5.1231 -2.8158 -8.0921 4.7671 -3.4643 2.5320 2.2938 -1.6400 2.4341 -0.0000 -0.0000 0.0000 7.6841 5.3278 -31.6523 76.8918 -59.3407 48.6731 29.0897 -22.8049 14.8471 0.0 0.0 0.0 -7.1250 0.0 0.0 1.0278 13.1062 0.7681 -0.0000 -0.0000 0.0000 -10.2292 -1.0439 22.5146 -57.3038 -55.5476 -32.1075 -26.5966 -13.2921 17.8945 0.0 0.0 0.0 7.1250 0.0 -0.0 1.4273 49.8289 -0.1699
8.6408 17.0080 10.5850 -5.1156 -1.5710 -3.3410 0.0000 0.0000 0.0000 -6.2202 -0.8274 -24.2717 8.2323 16.2875 53.3950 0.5714 -8.0360 -13.7610 0.2423 -3.1679 -8.7465 0.0000 0.0000 0.0000 21.1388 6.5622 -20.6604 -7.5188 -15.7536 50.8102 -0.8427 -1.9032 -18.1289 -0.0556 -1.5222 4.1870 2.0471 -0.0294 22.4555 3.6734 0.8837 1.8353 2.6343 0.4176 -10.5971 -5.1957 -2.8312 -8.0827 4.7280 -3.4726 2.4103 2.2931 -1.6462 2.3929 -0.0000 -0.0000 0.0000 7.7611 4.8774 -31.9662 78.8294 -59.5232 50.3414 29.1601 -22.4276 15.1332 0.0 0.0 0.0 -7.1250 0.0 0.0 1.0449 12.7746 0.7882 -0.0000 -0.0000 0.0000 -10.3736 -1.7184 22.4462 -58.5187 -55.9021 -33.1115 -26.5629 -13.209 17.293 0.0 0.0 0.0 7.1250 0.0 -0.0 1.3472 49.1667 -0.1385
8.6480 17.0751 10.6191 -4.8531 -1.4927 -3.1577 0.0000 0.0000 0.0000 -6.6792 -0.8829 -23.7281 7.9374 16.0730 52.3368 0.5473 -7.9580 -13.4834 0.2222 -3.0347 -8.3753 0.0000 0.0000 0.0000 20.8875 6.4146 -20.1584 -7.2308 -15.5232 49.7421 -0.7945 -2.2381 -17.7902 -0.0337 -1.1841 3.2555 1.9330 0.0155 22.0985 3.5854 0.8845 1.9348 2.5946 0.4205 -10.2899 -5.1605 -2.8540 -8.1023 4.6643 -3.4962 2.1721 2.2629 -1.6589 2.3151 -0.0000 -0.0000 0.0000 7.9444 4.1791 -32.387 80.1877 -59.633 51.5128 29.3963 -22.3568 15.5188 0.0 0.0 0.0 -7.1250 0.0 0.0 1.1610 12.3047 0.8871 -0.0000 -0.0000 0.0000 -10.4382 -2.5203 22.2325 -59.9255 -56.29 -34.2791 -26.0673 -12.9636 17.4198 0.0 0.0 0.0 7.1250 0.0 -0.0 1.8576 49.2247 -0.1936
